<svg width="200" height="200" viewBox="0 0 200 200" fill="none" xmlns="http://www.w3.org/2000/svg">
<g clip-path="url(#clip0_1_3)">
<rect width="200" height="200" rx="18" fill="white"/>
<rect y="62" width="200" height="76" fill="#CD3737"/>
<path d="M44.3389 82.68C47.6029 82.712 50.1149 83.48 51.8749 84.984C53.6349 86.456 54.5149 88.6 54.5149 91.416C54.5149 91.768 54.4829 92.328 54.4189 93.096L54.2269 94.68C53.8429 97.592 52.8189 99.896 51.1549 101.592C49.5229 103.288 47.3149 104.36 44.5309 104.808L54.3229 118.728H47.4109L38.2909 105.048H31.7149L30.0349 118.728H24.3709L28.7869 82.68H44.3389ZM42.3709 99.864C44.1949 99.832 45.6029 99.448 46.5949 98.712C47.6189 97.976 48.2429 96.712 48.4669 94.92L48.7549 92.856C48.7869 92.632 48.8029 92.328 48.8029 91.944C48.8029 90.504 48.3869 89.48 47.5549 88.872C46.7229 88.232 45.4909 87.896 43.8589 87.864H33.8269L32.3389 99.864H42.3709ZM72.7485 91.8C76.0445 91.8 78.5245 92.584 80.1885 94.152C81.8845 95.688 82.7325 97.976 82.7325 101.016C82.7325 101.72 82.6845 102.488 82.5885 103.32L82.0605 107.64H64.1565V107.688C64.0925 108.392 64.0605 108.872 64.0605 109.128C64.0605 110.76 64.5245 111.976 65.4525 112.776C66.4125 113.544 68.0125 113.928 70.2525 113.928H72.6045C74.2685 113.928 76.7965 113.784 80.1885 113.496L79.6605 118.488C76.8445 118.776 74.3165 118.92 72.0765 118.92H69.7245C65.8525 118.92 63.0045 118.136 61.1805 116.568C59.3885 115 58.4925 112.696 58.4925 109.656C58.4925 108.92 58.5405 108.168 58.6365 107.4L59.1165 103.368C59.5645 99.528 60.8285 96.648 62.9085 94.728C64.9885 92.776 67.9485 91.8 71.7885 91.8H72.7485ZM77.1165 102.984V102.936C77.1805 102.232 77.2125 101.72 77.2125 101.4C77.2125 99.864 76.7965 98.696 75.9645 97.896C75.1645 97.096 73.8845 96.696 72.1245 96.696H71.1645C67.3885 96.696 65.2445 98.792 64.7325 102.984H77.1165ZM91.824 118.92C88.88 118.856 86.336 118.728 84.192 118.536L84.912 113.352C88.048 113.64 90.56 113.816 92.448 113.88H94.08C96.128 113.88 97.552 113.624 98.352 113.112C99.184 112.6 99.696 111.864 99.888 110.904C99.92 110.744 99.936 110.52 99.936 110.232C99.936 109.432 99.808 108.904 99.552 108.648C99.328 108.296 98.96 108.056 98.448 107.928C97.936 107.8 96.96 107.656 95.52 107.496L94.416 107.352C92.752 107.224 91.168 106.936 89.664 106.488C88.48 106.04 87.6 105.4 87.024 104.568C86.448 103.704 86.16 102.568 86.16 101.16C86.16 100.872 86.192 100.376 86.256 99.672C86.48 97.72 87.04 96.2 87.936 95.112C88.832 93.992 90.08 93.192 91.68 92.712C93.28 92.232 95.344 91.992 97.872 91.992H99.84L106.608 92.04L105.984 97.128H97.248C95.84 97.128 94.768 97.208 94.032 97.368C93.296 97.496 92.752 97.736 92.4 98.088C92.08 98.408 91.872 98.888 91.776 99.528C91.744 99.688 91.728 99.896 91.728 100.152C91.728 100.664 91.872 101.096 92.16 101.448C92.48 101.832 92.944 102.104 93.552 102.264C94.192 102.392 95.36 102.552 97.056 102.744C99.072 102.936 100.72 103.24 102 103.656C103.12 104.04 103.968 104.696 104.544 105.624C105.152 106.552 105.456 107.752 105.456 109.224C105.456 109.928 105.424 110.472 105.36 110.856C104.976 113.832 103.856 115.912 102 117.096C100.144 118.312 97.296 118.92 93.456 118.92H91.824ZM122.165 97.128C120.181 97.128 118.661 97.656 117.605 98.712C116.581 99.768 115.941 101.336 115.685 103.416L115.205 107.544C115.141 108.184 115.109 108.648 115.109 108.936C115.109 112.168 116.757 113.784 120.053 113.784H121.924C123.365 113.784 125.781 113.64 129.173 113.352L128.645 118.488C125.829 118.776 123.413 118.92 121.397 118.92H119.429C112.805 118.92 109.493 115.912 109.493 109.896C109.493 109.096 109.541 108.264 109.637 107.4L110.117 103.56C110.597 99.72 111.877 96.84 113.957 94.92C116.037 92.968 118.981 91.992 122.789 91.992H124.565L131.285 92.088L130.661 97.176L122.165 97.128ZM151.441 113.448L154.033 91.992H159.553L156.289 118.728H144.241C137.617 118.728 134.305 115.688 134.305 109.608C134.305 108.872 134.353 108.072 134.449 107.208L136.321 91.992H141.841L139.969 107.352C139.905 107.768 139.873 108.344 139.873 109.08C139.873 110.744 140.257 111.896 141.025 112.536C141.825 113.176 143.105 113.496 144.865 113.496L151.441 113.448ZM177.092 91.8C180.388 91.8 182.868 92.584 184.532 94.152C186.228 95.688 187.076 97.976 187.076 101.016C187.076 101.72 187.028 102.488 186.932 103.32L186.404 107.64H168.5V107.688C168.436 108.392 168.404 108.872 168.404 109.128C168.404 110.76 168.868 111.976 169.796 112.776C170.756 113.544 172.356 113.928 174.596 113.928H176.948C178.612 113.928 181.14 113.784 184.532 113.496L184.004 118.488C181.188 118.776 178.66 118.92 176.42 118.92H174.068C170.196 118.92 167.348 118.136 165.524 116.568C163.732 115 162.836 112.696 162.836 109.656C162.836 108.92 162.884 108.168 162.98 107.4L163.46 103.368C163.908 99.528 165.172 96.648 167.252 94.728C169.332 92.776 172.292 91.8 176.132 91.8H177.092ZM181.46 102.984V102.936C181.524 102.232 181.556 101.72 181.556 101.4C181.556 99.864 181.14 98.696 180.308 97.896C179.508 97.096 178.228 96.696 176.468 96.696H175.508C171.732 96.696 169.588 98.792 169.076 102.984H181.46Z" fill="white"/>
</g>
<defs>
<clipPath id="clip0_1_3">
<rect width="200" height="200" fill="white"/>
</clipPath>
</defs>
</svg>
